<svg width="25.6" height="25.6" viewBox="0 0 25.6 25.6" fill="none" xmlns="http://www.w3.org/2000/svg">
  <path d="M12.8 5.06667C14.688 5.06667 16.3787 5.71733 17.712 6.98667L21.3653 3.33333C19.1467 1.26933 16.2507 0 12.8 0C7.79733 0 3.472 2.86933 1.36533 7.05067L5.62133 10.352C6.62933 7.31733 9.46133 5.06667 12.8 5.06667Z" fill="#EA4335"/>
  <path d="M25.056 13.0933C25.056 12.256 24.976 11.4453 24.8533 10.6667H12.8V15.4773H19.7013C19.392 17.056 18.496 18.4 17.152 19.3067L21.2747 22.5067C23.68 20.2773 25.056 16.9813 25.056 13.0933Z" fill="#4285F4"/>
  <path d="M5.616 15.248C5.36 14.4747 5.21067 13.6533 5.21067 12.8C5.21067 11.9467 5.35467 11.1253 5.616 10.352L1.36 7.05067C0.490667 8.77867 0 10.7307 0 12.8C0 14.8693 0.490667 16.8213 1.36533 18.5493L5.616 15.248Z" fill="#FBBC05"/>
  <path d="M12.8 25.6C16.256 25.6 19.1627 24.464 21.2747 22.5013L17.152 19.3013C16.0053 20.0747 14.528 20.528 12.8 20.528C9.46133 20.528 6.62933 18.2773 5.616 15.2427L1.36 18.544C3.472 22.7307 7.79733 25.6 12.8 25.6Z" fill="#34A853"/>
</svg>
