<svg preserveAspectRatio="none" overflow="visible" style="display: block;" width="26" height="26" viewBox="0 0 26 26" fill="none" xmlns="http://www.w3.org/2000/svg">
<g id="bi:check-lg">
<path id="Vector" d="M20.696 6.45125C20.8069 6.3381 20.9393 6.2482 21.0853 6.18683C21.2314 6.12547 21.3882 6.09386 21.5467 6.09386C21.7051 6.09386 21.862 6.12547 22.008 6.18683C22.1541 6.2482 22.2865 6.3381 22.3974 6.45125C22.8621 6.92088 22.8686 7.67975 22.4136 8.1575L12.805 19.5163C12.6959 19.636 12.5635 19.7323 12.4159 19.7992C12.2684 19.8661 12.1087 19.9021 11.9467 19.9052C11.7847 19.9082 11.6238 19.8782 11.4738 19.8169C11.3238 19.7556 11.1879 19.6644 11.0744 19.5487L5.22762 13.624C5.00214 13.394 4.87583 13.0848 4.87583 12.7628C4.87583 12.4407 5.00214 12.1315 5.22762 11.9015C5.33852 11.7883 5.47088 11.6985 5.61696 11.6371C5.76303 11.5757 5.91987 11.5441 6.07831 11.5441C6.23675 11.5441 6.3936 11.5757 6.53967 11.6371C6.68574 11.6985 6.8181 11.7883 6.929 11.9015L11.8885 16.9276L20.6635 6.487L20.696 6.45125Z" fill="white"/>
</g>
</svg>
