<svg preserveAspectRatio="none" overflow="visible" style="display: block;" width="33" height="33" viewBox="0 0 33 33" fill="none" xmlns="http://www.w3.org/2000/svg">
<g id="bi:three-dots">
<path id="Vector" d="M6.1875 19.5938C5.36699 19.5937 4.58008 19.2678 3.99989 18.6876C3.4197 18.1074 3.09375 17.3205 3.09375 16.5C3.09375 15.6795 3.4197 14.8926 3.99989 14.3124C4.58008 13.7322 5.36699 13.4063 6.1875 13.4062C7.00801 13.4062 7.79492 13.7322 8.37511 14.3124C8.9553 14.8926 9.28125 15.6795 9.28125 16.5C9.28125 17.3205 8.9553 18.1074 8.37511 18.6876C7.79492 19.2678 7.00801 19.5937 6.1875 19.5938ZM16.5 19.5938C15.6795 19.5937 14.8926 19.2678 14.3124 18.6876C13.7322 18.1074 13.4062 17.3205 13.4062 16.5C13.4062 15.6795 13.7322 14.8926 14.3124 14.3124C14.8926 13.7322 15.6795 13.4063 16.5 13.4062C17.3205 13.4062 18.1074 13.7322 18.6876 14.3124C19.2678 14.8926 19.5937 15.6795 19.5938 16.5C19.5937 17.3205 19.2678 18.1074 18.6876 18.6876C18.1074 19.2678 17.3205 19.5937 16.5 19.5938ZM26.8125 19.5938C25.992 19.5937 25.2051 19.2678 24.6249 18.6876C24.0447 18.1074 23.7188 17.3205 23.7188 16.5C23.7188 15.6795 24.0447 14.8926 24.6249 14.3124C25.2051 13.7322 25.992 13.4063 26.8125 13.4062C27.633 13.4062 28.4199 13.7322 29.0001 14.3124C29.5803 14.8926 29.9062 15.6795 29.9062 16.5C29.9062 17.3205 29.5803 18.1074 29.0001 18.6876C28.4199 19.2678 27.633 19.5937 26.8125 19.5938Z" fill="white"/>
</g>
</svg>
